<svg width="19" height="20" viewBox="0 0 19 20" fill="none" xmlns="http://www.w3.org/2000/svg">
<path d="M17.5 9L9 1L0.5 9V18.5H7V13H11.5V18.5H17.5V9Z" fill="white"/>
<path d="M17.822 8.06942L10.1907 0.869262C10.1869 0.866007 10.1834 0.862502 10.1802 0.858769C9.89922 0.603247 9.53308 0.461655 9.1533 0.461655C8.77352 0.461655 8.40738 0.603247 8.12641 0.858769L8.11591 0.869262L0.493174 8.06942C0.337684 8.2124 0.213566 8.3861 0.128675 8.57953C0.043784 8.77295 -3.20924e-05 8.9819 1.76358e-08 9.19313V18.0121C1.76358e-08 18.4169 0.160802 18.8051 0.447033 19.0913C0.733263 19.3775 1.12147 19.5383 1.52627 19.5383H6.10506C6.50985 19.5383 6.89806 19.3775 7.18429 19.0913C7.47052 18.8051 7.63133 18.4169 7.63133 18.0121V13.4333H10.6839V18.0121C10.6839 18.4169 10.8447 18.8051 11.1309 19.0913C11.4171 19.3775 11.8053 19.5383 12.2101 19.5383H16.7889C17.1937 19.5383 17.5819 19.3775 17.8681 19.0913C18.1544 18.8051 18.3152 18.4169 18.3152 18.0121V9.19313C18.3152 8.9819 18.2714 8.77295 18.1865 8.57953C18.1016 8.3861 17.9775 8.2124 17.822 8.06942ZM16.7889 18.0121H12.2101V13.4333C12.2101 13.0285 12.0493 12.6403 11.7631 12.3541C11.4769 12.0678 11.0886 11.907 10.6839 11.907H7.63133C7.22653 11.907 6.83832 12.0678 6.55209 12.3541C6.26586 12.6403 6.10506 13.0285 6.10506 13.4333V18.0121H1.52627V9.19313L1.53676 9.18359L9.15759 1.9863L16.7794 9.18168L16.7899 9.19122L16.7889 18.0121Z" fill="#6C42CB"/>
</svg>
