<svg width="19" height="19" viewBox="0 0 19 19" xmlns="http://www.w3.org/2000/svg">
<path id="pencel" d="M18.5542 4.69069L14.3098 0.445303C14.1686 0.304127 14.0011 0.192138 13.8166 0.115732C13.6322 0.039326 13.4345 0 13.2349 0C13.0353 0 12.8376 0.039326 12.6532 0.115732C12.4687 0.192138 12.3012 0.304127 12.16 0.445303L0.446014 12.1603C0.30426 12.3009 0.191873 12.4683 0.115387 12.6527C0.0389018 12.8372 -0.000157221 13.035 0.000480712 13.2347V17.4801C0.000480712 17.8832 0.160617 18.2698 0.445661 18.5548C0.730706 18.8399 1.11731 19 1.52042 19H5.76581C5.96549 19.0006 6.1633 18.9616 6.34774 18.8851C6.53219 18.8086 6.69959 18.6962 6.84022 18.5545L18.5542 6.84046C18.6954 6.69931 18.8074 6.53174 18.8838 6.34731C18.9602 6.16288 18.9995 5.96521 18.9995 5.76557C18.9995 5.56594 18.9602 5.36827 18.8838 5.18384C18.8074 4.99941 18.6954 4.83184 18.5542 4.69069ZM1.83486 12.9202L9.8801 4.87498L11.4656 6.46047L3.42035 14.5048L1.83486 12.9202ZM1.52042 14.7546L4.24587 17.4801H1.52042V14.7546ZM6.08025 17.1656L4.49476 15.5801L12.54 7.53488L14.1255 9.12037L6.08025 17.1656ZM15.1999 8.04596L10.9545 3.80057L13.2344 1.52066L17.4798 5.7651L15.1999 8.04596Z"/>
</svg>
