<svg width="17" height="17" viewBox="0 0 17 17" fill="none" xmlns="http://www.w3.org/2000/svg">
<path d="M16.5 8.5C16.5 8.67681 16.4298 8.84638 16.3047 8.97141C16.1797 9.09643 16.0101 9.16667 15.8333 9.16667H9.16667V15.8333C9.16667 16.0101 9.09643 16.1797 8.97141 16.3047C8.84638 16.4298 8.67681 16.5 8.5 16.5C8.32319 16.5 8.15362 16.4298 8.0286 16.3047C7.90357 16.1797 7.83333 16.0101 7.83333 15.8333V9.16667H1.16667C0.989856 9.16667 0.820287 9.09643 0.695262 8.97141C0.570238 8.84638 0.5 8.67681 0.5 8.5C0.5 8.32319 0.570238 8.15362 0.695262 8.0286C0.820287 7.90357 0.989856 7.83333 1.16667 7.83333H7.83333V1.16667C7.83333 0.989856 7.90357 0.820287 8.0286 0.695262C8.15362 0.570238 8.32319 0.5 8.5 0.5C8.67681 0.5 8.84638 0.570238 8.97141 0.695262C9.09643 0.820287 9.16667 0.989856 9.16667 1.16667V7.83333H15.8333C16.0101 7.83333 16.1797 7.90357 16.3047 8.0286C16.4298 8.15362 16.5 8.32319 16.5 8.5Z" fill="white"/>
</svg>
