<svg width="19" height="19" viewBox="0 0 19 19" fill="none" xmlns="http://www.w3.org/2000/svg">
<path id="trash" d="M17.5385 2.92308H13.8846V2.19231C13.8846 1.61087 13.6536 1.05325 13.2425 0.642112C12.8314 0.230975 12.2738 0 11.6923 0H7.3077C6.72626 0 6.16864 0.230975 5.7575 0.642112C5.34636 1.05325 5.11539 1.61087 5.11539 2.19231V2.92308H1.46154C1.26773 2.92308 1.08186 3.00007 0.944811 3.13711C0.807766 3.27416 0.730774 3.46003 0.730774 3.65385C0.730774 3.84766 0.807766 4.03353 0.944811 4.17058C1.08186 4.30762 1.26773 4.38462 1.46154 4.38462H2.19231V17.5385C2.19231 17.9261 2.3463 18.2978 2.62039 18.5719C2.89448 18.846 3.26623 19 3.65385 19H15.3462C15.7338 19 16.1055 18.846 16.3796 18.5719C16.6537 18.2978 16.8077 17.9261 16.8077 17.5385V4.38462H17.5385C17.7323 4.38462 17.9182 4.30762 18.0552 4.17058C18.1922 4.03353 18.2692 3.84766 18.2692 3.65385C18.2692 3.46003 18.1922 3.27416 18.0552 3.13711C17.9182 3.00007 17.7323 2.92308 17.5385 2.92308ZM6.57693 2.19231C6.57693 1.9985 6.65392 1.81262 6.79097 1.67558C6.92801 1.53853 7.11389 1.46154 7.3077 1.46154H11.6923C11.8861 1.46154 12.072 1.53853 12.209 1.67558C12.3461 1.81262 12.4231 1.9985 12.4231 2.19231V2.92308H6.57693V2.19231ZM15.3462 17.5385H3.65385V4.38462H15.3462V17.5385ZM8.03847 8.03846V13.8846C8.03847 14.0784 7.96148 14.2643 7.82443 14.4013C7.68738 14.5384 7.50151 14.6154 7.3077 14.6154C7.11389 14.6154 6.92801 14.5384 6.79097 14.4013C6.65392 14.2643 6.57693 14.0784 6.57693 13.8846V8.03846C6.57693 7.84465 6.65392 7.65878 6.79097 7.52173C6.92801 7.38468 7.11389 7.30769 7.3077 7.30769C7.50151 7.30769 7.68738 7.38468 7.82443 7.52173C7.96148 7.65878 8.03847 7.84465 8.03847 8.03846ZM12.4231 8.03846V13.8846C12.4231 14.0784 12.3461 14.2643 12.209 14.4013C12.072 14.5384 11.8861 14.6154 11.6923 14.6154C11.4985 14.6154 11.3126 14.5384 11.1756 14.4013C11.0385 14.2643 10.9615 14.0784 10.9615 13.8846V8.03846C10.9615 7.84465 11.0385 7.65878 11.1756 7.52173C11.3126 7.38468 11.4985 7.30769 11.6923 7.30769C11.8861 7.30769 12.072 7.38468 12.209 7.52173C12.3461 7.65878 12.4231 7.84465 12.4231 8.03846Z" fill="white"/>
</svg>
